name rise44.9368peak50.754fall52.0217.mot
datacolumns 19
datarows 20
range 12.97162500000000 13.00328400000000
endheader
time	ground_force1_vx	ground_force1_vy	ground_force1_vz	ground_force1_px	ground_force1_py	ground_force1_pz	ground_force2_vx	ground_force2_vy	ground_force2_vz	ground_force2_px	ground_force2_py	ground_force2_pz	ground_torque1_x	ground_torque1_y	ground_torque1_z	ground_torque2_x	ground_torque2_y	ground_torque2_z	
12.97162500000000	-63.56843100000000	851.30269999999996	65.38077800000001	0.13975600000000	0.00000000000000	0.11734900000000	0.00000000000000	0.00000000000000	0.00000000000000	0.00000000000000	0.00000000000000	0.00000000000000	0.00000000000000	30.73971900000000	0.00000000000000	0.00000000000000	0.00000000000000	0.00000000000000	
12.97328500000000	-63.83462400000000	850.69724599999995	65.52055400000000	0.13911000000000	0.00000000000000	0.11731700000000	-0.88721500000000	3.72841400000000	0.76614200000000	0.00000000000000	0.00000000000000	0.00000000000000	0.00000000000000	30.67529200000000	0.00000000000000	0.00000000000000	0.27294300000000	0.00000000000000	
12.97495300000000	-64.11062000000000	849.93615699999998	65.63450800000000	0.13846600000000	0.00000000000000	0.11728100000000	-1.45433600000000	7.18282700000000	1.31193700000000	0.00000000000000	0.00000000000000	0.00000000000000	0.00000000000000	30.60778400000000	0.00000000000000	0.00000000000000	0.47118200000000	0.00000000000000	
12.97662400000000	-64.39707600000000	849.01763700000004	65.72162600000000	0.13782400000000	0.00000000000000	0.11724200000000	-2.10185900000000	11.35553900000000	1.94720600000000	0.00000000000000	0.00000000000000	0.00000000000000	0.00000000000000	30.53733800000000	0.00000000000000	0.00000000000000	0.70279300000000	0.00000000000000	
12.97828700000000	-64.69459800000000	847.93998899999997	65.78094100000000	0.13718600000000	0.00000000000000	0.11719800000000	-2.81157000000000	16.20169300000000	2.65794700000000	0.00000000000000	0.00000000000000	0.00000000000000	0.00000000000000	30.46409900000000	0.00000000000000	0.00000000000000	0.96298500000000	0.00000000000000	
12.97995400000000	-65.00373900000000	846.70160599999997	65.81153600000000	0.13655100000000	0.00000000000000	0.11715100000000	-3.56012200000000	21.64458500000000	3.42520500000000	0.00000000000000	0.00000000000000	0.00000000000000	0.00000000000000	30.38820600000000	0.00000000000000	0.00000000000000	1.24518400000000	0.00000000000000	
12.98162300000000	-65.32499799999999	845.30097200000000	65.81254500000000	0.13592200000000	0.00000000000000	0.11709900000000	-4.32051800000000	27.58140300000000	4.22631400000000	0.36352600000000	0.00000000000000	-0.08466500000000	0.00000000000000	30.30979900000000	0.00000000000000	0.00000000000000	2.71205200000000	0.00000000000000	
12.98328500000000	-65.65881299999999	843.73665700000004	65.78316200000000	0.13529900000000	0.00000000000000	0.11704300000000	-5.06400500000000	33.89177900000000	5.03657400000000	0.36862600000000	0.00000000000000	-0.08496700000000	0.00000000000000	30.22901200000000	0.00000000000000	0.00000000000000	3.26953900000000	0.00000000000000	
12.98495800000000	-66.00556100000000	842.00731299999995	65.72263700000001	0.13468300000000	0.00000000000000	0.11698300000000	-5.76217200000000	40.44805800000000	5.83112700000000	0.37335800000000	0.00000000000000	-0.08523600000000	0.00000000000000	30.14597100000000	0.00000000000000	0.00000000000000	3.82758800000000	0.00000000000000	
12.98661800000000	-66.36555400000000	840.11167499999999	65.63028400000000	0.13407400000000	0.00000000000000	0.11691700000000	-6.38895000000000	47.12579400000000	6.58679200000000	0.37778100000000	0.00000000000000	-0.08547800000000	0.00000000000000	30.06080000000000	0.00000000000000	0.00000000000000	4.37088200000000	0.00000000000000	
12.98828800000000	-66.73903100000000	838.04855199999997	65.50548200000000	0.13347400000000	0.00000000000000	0.11684700000000	-6.92226300000000	53.81309000000000	7.28360800000000	0.38194000000000	0.00000000000000	-0.08569800000000	0.00000000000000	29.97361100000000	0.00000000000000	0.00000000000000	4.88587500000000	0.00000000000000	
12.98995400000000	-67.12616199999999	835.81683199999998	65.34767500000000	0.13288400000000	0.00000000000000	0.11677200000000	-7.34516600000000	60.41780500000000	7.90594200000000	0.38587100000000	0.00000000000000	-0.08589800000000	0.00000000000000	29.88450800000000	0.00000000000000	0.00000000000000	5.36160400000000	0.00000000000000	
12.99162100000000	-67.52704300000001	833.41547400000002	65.15638000000000	0.13230300000000	0.00000000000000	0.11669100000000	-7.64642000000000	66.87210500000000	8.44308100000000	0.38960300000000	0.00000000000000	-0.08608100000000	0.00000000000000	29.79358600000000	0.00000000000000	0.00000000000000	5.79016700000000	0.00000000000000	
12.99328800000000	-67.94168800000000	830.84350800000004	64.93118200000001	0.13173400000000	0.00000000000000	0.11660500000000	-7.82050700000000	73.13432000000000	8.88934300000000	0.39316000000000	0.00000000000000	-0.08625100000000	0.00000000000000	29.70092600000000	0.00000000000000	0.00000000000000	6.16689200000000	0.00000000000000	
12.99495500000000	-68.37003500000000	828.10003400000005	64.67173900000000	0.13117600000000	0.00000000000000	0.11651400000000	-7.86718600000000	79.18833800000000	9.24374500000000	0.39656100000000	0.00000000000000	-0.08640900000000	0.00000000000000	29.60659700000000	0.00000000000000	0.00000000000000	6.49020200000000	0.00000000000000	
12.99662100000000	-68.81193600000000	825.18421799999999	64.37778500000000	0.13063000000000	0.00000000000000	0.11641700000000	-7.79069300000000	85.04100699999999	9.50935200000000	0.39982100000000	0.00000000000000	-0.08655600000000	0.00000000000000	29.51065400000000	0.00000000000000	0.00000000000000	6.76125400000000	0.00000000000000	
12.99828700000000	-69.26715799999999	822.09529399999997	64.04913000000001	0.13009700000000	0.00000000000000	0.11631400000000	-7.59871600000000	90.71809500000001	9.69239600000000	0.40295400000000	0.00000000000000	-0.08669500000000	0.00000000000000	29.41313900000000	0.00000000000000	0.00000000000000	6.98341100000000	0.00000000000000	
12.99995800000000	-69.73538300000000	818.83256300000005	63.68565600000000	0.12957800000000	0.00000000000000	0.11620600000000	-7.30126800000000	96.25940400000000	9.80129700000000	0.40596900000000	0.00000000000000	-0.08682700000000	0.00000000000000	29.31407500000000	0.00000000000000	0.00000000000000	7.16161600000000	0.00000000000000	
13.00161700000000	-70.21620000000000	815.39539000000002	63.28732600000000	0.12907300000000	0.00000000000000	0.11609100000000	-6.90957000000000	101.71357800000000	9.84567000000000	0.40887600000000	0.00000000000000	-0.08695200000000	0.00000000000000	29.21347100000000	0.00000000000000	0.00000000000000	7.30175100000000	0.00000000000000	
13.00328400000000	-70.70910900000000	811.78320799999995	62.85417900000000	0.12858200000000	0.00000000000000	0.11597100000000	-6.43503300000000	107.13309099999999	9.83540300000000	0.41168100000000	0.00000000000000	-0.08707200000000	0.00000000000000	29.11131800000000	0.00000000000000	0.00000000000000	7.41001800000000	0.00000000000000	
